G04*
G04 #@! TF.GenerationSoftware,Altium Limited,Altium Designer,23.2.1 (34)*
G04*
G04 Layer_Physical_Order=2*
G04 Layer_Color=16711680*
%FSLAX44Y44*%
%MOMM*%
G71*
G04*
G04 #@! TF.SameCoordinates,2F04A12E-80DC-47A9-97FB-97186C95C1CF*
G04*
G04*
G04 #@! TF.FilePolarity,Positive*
G04*
G01*
G75*
%ADD14C,0.2540*%
%ADD32C,1.5000*%
%ADD33C,4.7400*%
%ADD34C,2.4000*%
%ADD35R,2.4000X2.4000*%
%ADD36R,1.7250X1.7250*%
%ADD37C,1.4250*%
%ADD38R,1.4250X1.4250*%
%ADD39R,1.9800X1.9800*%
%ADD40C,1.9800*%
%ADD41R,1.8000X1.8000*%
%ADD42C,1.8000*%
%ADD43C,1.4160*%
%ADD44C,1.2700*%
G36*
X1003300Y260350D02*
X266700D01*
Y334877D01*
X267873Y335363D01*
X271311Y331925D01*
X270630Y329382D01*
Y326738D01*
X271314Y324184D01*
X272636Y321895D01*
X274505Y320026D01*
X276795Y318704D01*
X279348Y318020D01*
X281992D01*
X282444Y318141D01*
X282976Y316969D01*
X279943Y314942D01*
X276288Y311287D01*
X273416Y306990D01*
X271438Y302214D01*
X270430Y297145D01*
Y291976D01*
X271438Y286906D01*
X273416Y282131D01*
X276288Y277833D01*
X279943Y274178D01*
X284241Y271307D01*
X289016Y269329D01*
X294086Y268320D01*
X299254D01*
X304324Y269329D01*
X309099Y271307D01*
X313397Y274178D01*
X317052Y277833D01*
X319924Y282131D01*
X321902Y286906D01*
X322910Y291976D01*
Y297145D01*
X321902Y302214D01*
X319924Y306990D01*
X317052Y311287D01*
X313397Y314942D01*
X310364Y316969D01*
X310895Y318141D01*
X311348Y318020D01*
X313992D01*
X316545Y318704D01*
X318835Y320026D01*
X320704Y321895D01*
X322026Y324184D01*
X322710Y326738D01*
Y329382D01*
X322026Y331935D01*
X320704Y334225D01*
X319469Y335459D01*
X319995Y336729D01*
X400197D01*
X400365Y335459D01*
X400130Y335396D01*
X397925Y334124D01*
X396126Y332324D01*
X394854Y330121D01*
X394195Y327662D01*
Y325118D01*
X394854Y322659D01*
X396126Y320456D01*
X397925Y318656D01*
X400130Y317384D01*
X402588Y316725D01*
X405132D01*
X407419Y317338D01*
X426513Y298243D01*
X427773Y297401D01*
X429260Y297105D01*
X471143D01*
X472326Y295056D01*
X474126Y293256D01*
X476329Y291984D01*
X478788Y291325D01*
X481332D01*
X483791Y291984D01*
X485994Y293256D01*
X487794Y295056D01*
X489066Y297260D01*
X489725Y299718D01*
Y302262D01*
X489112Y304549D01*
X507069Y322505D01*
X521943D01*
X523126Y320456D01*
X524925Y318656D01*
X527130Y317384D01*
X529588Y316725D01*
X532132D01*
X534419Y317338D01*
X553513Y298243D01*
X554773Y297401D01*
X556260Y297105D01*
X598143D01*
X599326Y295056D01*
X601125Y293256D01*
X603330Y291984D01*
X605788Y291325D01*
X608332D01*
X610790Y291984D01*
X612994Y293256D01*
X614794Y295056D01*
X616066Y297260D01*
X616725Y299718D01*
Y302262D01*
X616112Y304549D01*
X634069Y322505D01*
X643863D01*
X645046Y320456D01*
X646845Y318656D01*
X649050Y317384D01*
X651508Y316725D01*
X654052D01*
X656510Y317384D01*
X658715Y318656D01*
X660514Y320456D01*
X661786Y322659D01*
X662445Y325118D01*
Y327662D01*
X661786Y330121D01*
X660514Y332324D01*
X658715Y334124D01*
X656510Y335396D01*
X654052Y336055D01*
X651508D01*
X649050Y335396D01*
X646845Y334124D01*
X645046Y332324D01*
X643863Y330275D01*
X632460D01*
X630973Y329979D01*
X629713Y329137D01*
X610619Y310042D01*
X608332Y310655D01*
X605788D01*
X603330Y309996D01*
X601125Y308724D01*
X599326Y306924D01*
X598143Y304875D01*
X557869D01*
X539912Y322831D01*
X540525Y325118D01*
Y327662D01*
X539866Y330121D01*
X538594Y332324D01*
X536795Y334124D01*
X534590Y335396D01*
X534355Y335459D01*
X534523Y336729D01*
X603397D01*
X603565Y335459D01*
X603330Y335396D01*
X601125Y334124D01*
X599326Y332324D01*
X598054Y330121D01*
X597395Y327662D01*
Y325118D01*
X598054Y322659D01*
X599326Y320456D01*
X601125Y318656D01*
X603330Y317384D01*
X605788Y316725D01*
X608332D01*
X610790Y317384D01*
X612994Y318656D01*
X614794Y320456D01*
X616066Y322659D01*
X616725Y325118D01*
Y327662D01*
X616066Y330121D01*
X614794Y332324D01*
X612994Y334124D01*
X610790Y335396D01*
X610555Y335459D01*
X610723Y336729D01*
X641604D01*
X643091Y337025D01*
X644351Y337867D01*
X649221Y342738D01*
X651508Y342125D01*
X654052D01*
X656510Y342784D01*
X658715Y344056D01*
X660514Y345855D01*
X661786Y348060D01*
X662445Y350518D01*
Y353062D01*
X661786Y355521D01*
X660514Y357724D01*
X658715Y359524D01*
X656510Y360796D01*
X654052Y361455D01*
X651508D01*
X649050Y360796D01*
X646845Y359524D01*
X645046Y357724D01*
X643774Y355521D01*
X643115Y353062D01*
Y350518D01*
X643728Y348231D01*
X639995Y344499D01*
X615096D01*
X614610Y345672D01*
X614794Y345855D01*
X616066Y348060D01*
X616725Y350518D01*
Y353062D01*
X616066Y355521D01*
X614794Y357724D01*
X612994Y359524D01*
X610790Y360796D01*
X608332Y361455D01*
X605788D01*
X603330Y360796D01*
X601125Y359524D01*
X599326Y357724D01*
X598054Y355521D01*
X597395Y353062D01*
Y350518D01*
X598054Y348060D01*
X599326Y345855D01*
X599510Y345672D01*
X599024Y344499D01*
X538896D01*
X538410Y345672D01*
X538594Y345855D01*
X539866Y348060D01*
X540525Y350518D01*
Y353062D01*
X539866Y355521D01*
X538594Y357724D01*
X536795Y359524D01*
X534590Y360796D01*
X532132Y361455D01*
X529588D01*
X527130Y360796D01*
X524925Y359524D01*
X523126Y357724D01*
X521854Y355521D01*
X521195Y353062D01*
Y350518D01*
X521854Y348060D01*
X523126Y345855D01*
X523310Y345672D01*
X522824Y344499D01*
X488096D01*
X487610Y345672D01*
X487794Y345855D01*
X489066Y348060D01*
X489725Y350518D01*
Y353062D01*
X489066Y355521D01*
X487794Y357724D01*
X485994Y359524D01*
X483791Y360796D01*
X483555Y360859D01*
X483723Y362129D01*
X519684D01*
X521171Y362425D01*
X522431Y363267D01*
X526689Y367525D01*
X540525D01*
Y384481D01*
X594275D01*
X598008Y380749D01*
X597395Y378462D01*
Y375918D01*
X598054Y373460D01*
X599326Y371255D01*
X601125Y369456D01*
X603330Y368184D01*
X605788Y367525D01*
X608332D01*
X610790Y368184D01*
X612994Y369456D01*
X614794Y371255D01*
X616066Y373460D01*
X616725Y375918D01*
Y378462D01*
X616112Y380749D01*
X619845Y384481D01*
X643115D01*
Y367525D01*
X662445D01*
Y384481D01*
X716195D01*
X719928Y380749D01*
X719315Y378462D01*
Y375918D01*
X719974Y373460D01*
X721246Y371255D01*
X723046Y369456D01*
X725249Y368184D01*
X727708Y367525D01*
X730252D01*
X732710Y368184D01*
X734914Y369456D01*
X736714Y371255D01*
X737897Y373305D01*
X934281D01*
X968000Y339586D01*
Y320200D01*
X992880D01*
Y345080D01*
X984670D01*
X984503Y346350D01*
X985242Y346548D01*
X988078Y348186D01*
X990395Y350502D01*
X992032Y353338D01*
X992880Y356502D01*
Y356870D01*
X980440D01*
X968000D01*
Y356502D01*
X968848Y353338D01*
X970486Y350502D01*
X972802Y348186D01*
X975638Y346548D01*
X976377Y346350D01*
X976209Y345080D01*
X973494D01*
X939992Y378582D01*
X940478Y379755D01*
X968602D01*
X968848Y378838D01*
X970486Y376002D01*
X972802Y373686D01*
X975638Y372048D01*
X977506Y371547D01*
Y370233D01*
X975638Y369732D01*
X972802Y368094D01*
X970486Y365778D01*
X968848Y362942D01*
X968000Y359778D01*
Y359410D01*
X980440D01*
X992880D01*
Y359778D01*
X992032Y362942D01*
X990395Y365778D01*
X988078Y368094D01*
X985242Y369732D01*
X983374Y370233D01*
Y371547D01*
X985242Y372048D01*
X988078Y373686D01*
X990395Y376002D01*
X992032Y378838D01*
X992880Y382002D01*
Y385278D01*
X992032Y388442D01*
X990395Y391278D01*
X988078Y393595D01*
X985242Y395232D01*
X982078Y396080D01*
X978802D01*
X975638Y395232D01*
X972802Y393595D01*
X970486Y391278D01*
X968848Y388442D01*
X968602Y387525D01*
X890002D01*
X889228Y388532D01*
X889677Y390208D01*
Y393247D01*
X888891Y396182D01*
X887372Y398813D01*
X885223Y400962D01*
X882592Y402481D01*
X879657Y403267D01*
X876618D01*
X873683Y402481D01*
X871052Y400962D01*
X868903Y398813D01*
X867384Y396182D01*
X866598Y393247D01*
Y390208D01*
X867384Y387273D01*
X868903Y384642D01*
X871052Y382493D01*
X871384Y382301D01*
X871055Y381075D01*
X822503D01*
Y403267D01*
X799423D01*
Y381075D01*
X737897D01*
X736714Y383125D01*
X734914Y384924D01*
X732710Y386196D01*
X730252Y386855D01*
X727708D01*
X725421Y386242D01*
X720551Y391113D01*
X719291Y391955D01*
X717804Y392251D01*
X618236D01*
X616749Y391955D01*
X615489Y391113D01*
X610619Y386242D01*
X608332Y386855D01*
X605788D01*
X603501Y386242D01*
X598631Y391113D01*
X597371Y391955D01*
X595884Y392251D01*
X511048D01*
X509561Y391955D01*
X508301Y391113D01*
X498263Y381075D01*
X488977D01*
X487794Y383125D01*
X487610Y383308D01*
X488096Y384481D01*
X492165D01*
X493652Y384777D01*
X494912Y385619D01*
X649177Y539884D01*
X650019Y541144D01*
X650315Y542631D01*
Y547395D01*
X652337Y548562D01*
X654128Y550353D01*
X655394Y552547D01*
X656050Y554994D01*
Y557527D01*
X655394Y559973D01*
X654208Y562027D01*
X654547Y563179D01*
X654596Y563297D01*
X663664D01*
X663713Y563179D01*
X664052Y562027D01*
X662866Y559973D01*
X662211Y557530D01*
X681449D01*
X680794Y559973D01*
X679608Y562027D01*
X679947Y563179D01*
X679996Y563297D01*
X708264D01*
X708313Y563179D01*
X708651Y562027D01*
X707466Y559973D01*
X706810Y557527D01*
Y554994D01*
X707466Y552547D01*
X708732Y550353D01*
X710523Y548562D01*
X712717Y547296D01*
X715163Y546640D01*
X717696D01*
X720143Y547296D01*
X722337Y548562D01*
X724128Y550353D01*
X725394Y552547D01*
X726050Y554994D01*
Y557527D01*
X725394Y559973D01*
X724208Y562027D01*
X724547Y563179D01*
X724596Y563297D01*
X733664D01*
X733713Y563179D01*
X734051Y562027D01*
X732866Y559973D01*
X732211Y557530D01*
X751449D01*
X750794Y559973D01*
X749608Y562027D01*
X749947Y563179D01*
X749996Y563297D01*
X778264D01*
X778313Y563179D01*
X778652Y562027D01*
X777466Y559973D01*
X776810Y557527D01*
Y554994D01*
X777466Y552547D01*
X778732Y550353D01*
X780523Y548562D01*
X782717Y547296D01*
X785164Y546640D01*
X787697D01*
X790143Y547296D01*
X792337Y548562D01*
X794128Y550353D01*
X794183Y550449D01*
X795453Y550108D01*
Y510032D01*
X795749Y508545D01*
X796591Y507285D01*
X827035Y476841D01*
Y460005D01*
X849365D01*
Y482335D01*
X832529D01*
X803223Y511641D01*
Y549483D01*
X804493Y549993D01*
X805923Y548562D01*
X808117Y547296D01*
X810560Y546641D01*
Y556260D01*
Y565879D01*
X808117Y565224D01*
X805923Y563958D01*
X804132Y562167D01*
X804073Y562064D01*
X802677Y562185D01*
X802085Y563071D01*
X795227Y569929D01*
X793967Y570771D01*
X792480Y571067D01*
X631190D01*
X629703Y570771D01*
X628443Y569929D01*
X612493Y553979D01*
X611354Y554636D01*
X611449Y554990D01*
X603100D01*
Y546641D01*
X603454Y546736D01*
X604111Y545597D01*
X536680Y478166D01*
X535838Y476906D01*
X535542Y475419D01*
Y461634D01*
X534272Y461167D01*
X532967Y461921D01*
Y507303D01*
X572908Y547244D01*
X575164Y546640D01*
X577697D01*
X580143Y547296D01*
X582337Y548562D01*
X584128Y550353D01*
X585395Y552547D01*
X586050Y554994D01*
Y557527D01*
X585395Y559973D01*
X584128Y562167D01*
X582337Y563958D01*
X580143Y565224D01*
X577697Y565880D01*
X575164D01*
X572717Y565224D01*
X570523Y563958D01*
X568732Y562167D01*
X567466Y559973D01*
X566810Y557527D01*
Y554994D01*
X567415Y552738D01*
X526335Y511659D01*
X525493Y510398D01*
X525197Y508912D01*
Y483102D01*
X524245Y482335D01*
X501915D01*
Y460005D01*
X520886D01*
X521609Y458735D01*
X520798Y457329D01*
X520192Y455068D01*
Y452728D01*
X520798Y450467D01*
X521847Y448649D01*
X521422Y447379D01*
X495565D01*
X494078Y447084D01*
X492818Y446241D01*
X414795Y368219D01*
X413525Y368745D01*
Y381361D01*
X447501Y415337D01*
X448343Y416597D01*
X448639Y418084D01*
Y492975D01*
X502908Y547244D01*
X505163Y546640D01*
X507696D01*
X510143Y547296D01*
X512337Y548562D01*
X514128Y550353D01*
X515394Y552547D01*
X516050Y554994D01*
Y557527D01*
X515394Y559973D01*
X514128Y562167D01*
X512337Y563958D01*
X510143Y565224D01*
X507696Y565880D01*
X505163D01*
X502717Y565224D01*
X500523Y563958D01*
X498732Y562167D01*
X497465Y559973D01*
X496810Y557527D01*
Y554994D01*
X497414Y552738D01*
X442007Y497331D01*
X441165Y496071D01*
X440869Y494584D01*
Y419693D01*
X408031Y386855D01*
X394195D01*
Y367525D01*
X412305D01*
X412831Y366255D01*
X407419Y360842D01*
X405132Y361455D01*
X402588D01*
X400130Y360796D01*
X397925Y359524D01*
X396126Y357724D01*
X394943Y355675D01*
X343701D01*
X290074Y356756D01*
X290026Y356935D01*
X288704Y359225D01*
X287577Y360351D01*
X288103Y361621D01*
X335280D01*
X336767Y361917D01*
X338027Y362759D01*
X348187Y372919D01*
X349029Y374179D01*
X349325Y375666D01*
Y409871D01*
X399459Y460005D01*
X416295D01*
Y482335D01*
X393965D01*
Y465499D01*
X342693Y414227D01*
X341851Y412967D01*
X341555Y411480D01*
Y377275D01*
X333671Y369391D01*
X319995D01*
X319469Y370661D01*
X320704Y371895D01*
X322026Y374185D01*
X322710Y376738D01*
Y379382D01*
X322026Y381936D01*
X320704Y384225D01*
X318835Y386094D01*
X316545Y387416D01*
X313992Y388100D01*
X311348D01*
X310894Y387979D01*
X310363Y389151D01*
X313397Y391178D01*
X317052Y394833D01*
X319924Y399131D01*
X321902Y403906D01*
X322910Y408976D01*
Y414145D01*
X321902Y419214D01*
X319924Y423990D01*
X317052Y428287D01*
X313397Y431942D01*
X309099Y434814D01*
X304324Y436792D01*
X299254Y437800D01*
X294086D01*
X289016Y436792D01*
X284241Y434814D01*
X279943Y431942D01*
X276288Y428287D01*
X273416Y423990D01*
X271438Y419214D01*
X270430Y414145D01*
Y408976D01*
X271438Y403906D01*
X273416Y399131D01*
X276288Y394833D01*
X279943Y391178D01*
X282977Y389151D01*
X282446Y387979D01*
X281992Y388100D01*
X279348D01*
X276795Y387416D01*
X274505Y386094D01*
X272636Y384225D01*
X271314Y381936D01*
X270630Y379382D01*
Y376738D01*
X271314Y374185D01*
X272636Y371895D01*
X273925Y370607D01*
X273507Y369229D01*
X272833Y369095D01*
X271573Y368253D01*
X267873Y364553D01*
X266700Y365039D01*
Y615950D01*
X1003300D01*
Y260350D01*
D02*
G37*
G36*
X521195Y373019D02*
X518075Y369899D01*
X488096D01*
X487610Y371072D01*
X487794Y371255D01*
X488977Y373305D01*
X499872D01*
X501359Y373601D01*
X502619Y374443D01*
X512657Y384481D01*
X521195D01*
Y373019D01*
D02*
G37*
G36*
X289016Y386329D02*
X294086Y385320D01*
X299254D01*
X304324Y386329D01*
X305382Y386767D01*
X306101Y385690D01*
X304636Y384225D01*
X303314Y381936D01*
X302630Y379382D01*
Y376738D01*
X303314Y374185D01*
X304636Y371895D01*
X305871Y370661D01*
X305345Y369391D01*
X287995D01*
X287469Y370661D01*
X288704Y371895D01*
X290026Y374185D01*
X290710Y376738D01*
Y379382D01*
X290026Y381936D01*
X288704Y384225D01*
X287239Y385690D01*
X287958Y386767D01*
X289016Y386329D01*
D02*
G37*
G36*
X638313Y563179D02*
X638652Y562027D01*
X637466Y559973D01*
X636810Y557527D01*
Y554994D01*
X637466Y552547D01*
X638732Y550353D01*
X640523Y548562D01*
X642545Y547395D01*
Y544240D01*
X490556Y392251D01*
X472440D01*
X470953Y391955D01*
X469693Y391113D01*
X466137Y387557D01*
X465295Y386297D01*
X464999Y384810D01*
Y369570D01*
X465295Y368083D01*
X466137Y366823D01*
X469693Y363267D01*
X470953Y362425D01*
X472440Y362129D01*
X476397D01*
X476565Y360859D01*
X476329Y360796D01*
X474126Y359524D01*
X472326Y357724D01*
X471054Y355521D01*
X470395Y353062D01*
Y350518D01*
X471054Y348060D01*
X472326Y345855D01*
X472510Y345672D01*
X472024Y344499D01*
X411896D01*
X411410Y345672D01*
X411594Y345855D01*
X412866Y348060D01*
X413525Y350518D01*
Y353062D01*
X412912Y355349D01*
X497174Y439610D01*
X533400D01*
X534887Y439906D01*
X536147Y440748D01*
X542174Y446775D01*
X543016Y448035D01*
X543312Y449522D01*
Y473810D01*
X632799Y563297D01*
X638264D01*
X638313Y563179D01*
D02*
G37*
G36*
X343584Y347906D02*
X343623Y347913D01*
X343662Y347905D01*
X394943D01*
X396126Y345855D01*
X396310Y345672D01*
X395824Y344499D01*
X293224D01*
X291738Y344203D01*
X290477Y343361D01*
X284535Y337418D01*
X281992Y338100D01*
X279348D01*
X276805Y337418D01*
X273125Y341099D01*
Y344747D01*
X274298Y345233D01*
X274505Y345026D01*
X276795Y343704D01*
X279348Y343020D01*
X281992D01*
X284545Y343704D01*
X286835Y345026D01*
X288704Y346895D01*
X289912Y348988D01*
X343584Y347906D01*
D02*
G37*
G36*
X305871Y335459D02*
X304636Y334225D01*
X303314Y331935D01*
X302630Y329382D01*
Y326738D01*
X303314Y324184D01*
X304636Y321895D01*
X306100Y320431D01*
X305381Y319354D01*
X304324Y319792D01*
X299254Y320800D01*
X294086D01*
X289016Y319792D01*
X287959Y319354D01*
X287240Y320431D01*
X288704Y321895D01*
X290026Y324184D01*
X290710Y326738D01*
Y329382D01*
X290029Y331925D01*
X294833Y336729D01*
X305345D01*
X305871Y335459D01*
D02*
G37*
G36*
X527365D02*
X527130Y335396D01*
X524925Y334124D01*
X523126Y332324D01*
X521943Y330275D01*
X505460D01*
X503973Y329979D01*
X502713Y329137D01*
X483619Y310042D01*
X481332Y310655D01*
X478788D01*
X476329Y309996D01*
X474126Y308724D01*
X472326Y306924D01*
X471143Y304875D01*
X430869D01*
X412912Y322831D01*
X413525Y325118D01*
Y327662D01*
X412866Y330121D01*
X411594Y332324D01*
X409795Y334124D01*
X407590Y335396D01*
X407355Y335459D01*
X407523Y336729D01*
X476397D01*
X476565Y335459D01*
X476329Y335396D01*
X474126Y334124D01*
X472326Y332324D01*
X471054Y330121D01*
X470395Y327662D01*
Y325118D01*
X471054Y322659D01*
X472326Y320456D01*
X474126Y318656D01*
X476329Y317384D01*
X478788Y316725D01*
X481332D01*
X483791Y317384D01*
X485994Y318656D01*
X487794Y320456D01*
X489066Y322659D01*
X489725Y325118D01*
Y327662D01*
X489066Y330121D01*
X487794Y332324D01*
X485994Y334124D01*
X483791Y335396D01*
X483555Y335459D01*
X483723Y336729D01*
X527197D01*
X527365Y335459D01*
D02*
G37*
%LPC*%
G36*
X329574Y570800D02*
X328930D01*
Y557530D01*
X342200D01*
Y558174D01*
X341209Y561872D01*
X339295Y565188D01*
X336588Y567895D01*
X333272Y569809D01*
X329574Y570800D01*
D02*
G37*
G36*
X813100Y565879D02*
Y557530D01*
X821449D01*
X820795Y559973D01*
X819528Y562167D01*
X817737Y563958D01*
X815543Y565224D01*
X813100Y565879D01*
D02*
G37*
G36*
X603100D02*
Y557530D01*
X611449D01*
X610794Y559973D01*
X609528Y562167D01*
X607737Y563958D01*
X605543Y565224D01*
X603100Y565879D01*
D02*
G37*
G36*
X600560D02*
X598117Y565224D01*
X595923Y563958D01*
X594132Y562167D01*
X592866Y559973D01*
X592211Y557530D01*
X600560D01*
Y565879D01*
D02*
G37*
G36*
X533100D02*
Y557530D01*
X541449D01*
X540794Y559973D01*
X539528Y562167D01*
X537737Y563958D01*
X535543Y565224D01*
X533100Y565879D01*
D02*
G37*
G36*
X530560D02*
X528117Y565224D01*
X525923Y563958D01*
X524132Y562167D01*
X522865Y559973D01*
X522211Y557530D01*
X530560D01*
Y565879D01*
D02*
G37*
G36*
X326390Y570800D02*
X325746D01*
X322048Y569809D01*
X318732Y567895D01*
X316025Y565188D01*
X314111Y561872D01*
X313120Y558174D01*
Y557530D01*
X326390D01*
Y570800D01*
D02*
G37*
G36*
X821449Y554990D02*
X813100D01*
Y546641D01*
X815543Y547296D01*
X817737Y548562D01*
X819528Y550353D01*
X820795Y552547D01*
X821449Y554990D01*
D02*
G37*
G36*
X751449D02*
X743100D01*
Y546641D01*
X745543Y547296D01*
X747737Y548562D01*
X749528Y550353D01*
X750794Y552547D01*
X751449Y554990D01*
D02*
G37*
G36*
X740560D02*
X732211D01*
X732866Y552547D01*
X734132Y550353D01*
X735923Y548562D01*
X738117Y547296D01*
X740560Y546641D01*
Y554990D01*
D02*
G37*
G36*
X681449D02*
X673100D01*
Y546641D01*
X675543Y547296D01*
X677737Y548562D01*
X679528Y550353D01*
X680794Y552547D01*
X681449Y554990D01*
D02*
G37*
G36*
X670560D02*
X662211D01*
X662866Y552547D01*
X664132Y550353D01*
X665923Y548562D01*
X668117Y547296D01*
X670560Y546641D01*
Y554990D01*
D02*
G37*
G36*
X600560D02*
X592211D01*
X592866Y552547D01*
X594132Y550353D01*
X595923Y548562D01*
X598117Y547296D01*
X600560Y546641D01*
Y554990D01*
D02*
G37*
G36*
X541449D02*
X533100D01*
Y546641D01*
X535543Y547296D01*
X537737Y548562D01*
X539528Y550353D01*
X540794Y552547D01*
X541449Y554990D01*
D02*
G37*
G36*
X530560D02*
X522211D01*
X522865Y552547D01*
X524132Y550353D01*
X525923Y548562D01*
X528117Y547296D01*
X530560Y546641D01*
Y554990D01*
D02*
G37*
G36*
X392200Y570800D02*
X363120D01*
Y541720D01*
X392200D01*
Y570800D01*
D02*
G37*
G36*
X342200Y554990D02*
X328930D01*
Y541720D01*
X329574D01*
X333272Y542711D01*
X336588Y544625D01*
X339295Y547332D01*
X341209Y550648D01*
X342200Y554346D01*
Y554990D01*
D02*
G37*
G36*
X326390D02*
X313120D01*
Y554346D01*
X314111Y550648D01*
X316025Y547332D01*
X318732Y544625D01*
X322048Y542711D01*
X325746Y541720D01*
X326390D01*
Y554990D01*
D02*
G37*
G36*
X726175Y482335D02*
X703845D01*
Y460005D01*
X726175D01*
Y482335D01*
D02*
G37*
G36*
X628385D02*
X606055D01*
Y460005D01*
X628385D01*
Y482335D01*
D02*
G37*
G36*
X798569Y369680D02*
X798320D01*
Y359410D01*
X808590D01*
Y359659D01*
X807803Y362594D01*
X806284Y365226D01*
X804136Y367374D01*
X801504Y368894D01*
X798569Y369680D01*
D02*
G37*
G36*
X795780D02*
X795531D01*
X792596Y368894D01*
X789964Y367374D01*
X787816Y365226D01*
X786296Y362594D01*
X785510Y359659D01*
Y359410D01*
X795780D01*
Y369680D01*
D02*
G37*
G36*
X893569D02*
X890531D01*
X887596Y368894D01*
X884964Y367374D01*
X882816Y365226D01*
X881296Y362594D01*
X880510Y359659D01*
Y356621D01*
X881296Y353686D01*
X882816Y351054D01*
X884964Y348906D01*
X887596Y347387D01*
X890531Y346600D01*
X893569D01*
X896504Y347387D01*
X899136Y348906D01*
X901284Y351054D01*
X902804Y353686D01*
X903590Y356621D01*
Y359659D01*
X902804Y362594D01*
X901284Y365226D01*
X899136Y367374D01*
X896504Y368894D01*
X893569Y369680D01*
D02*
G37*
G36*
X808590Y356870D02*
X798320D01*
Y346600D01*
X798569D01*
X801504Y347387D01*
X804136Y348906D01*
X806284Y351054D01*
X807803Y353686D01*
X808590Y356621D01*
Y356870D01*
D02*
G37*
G36*
X795780D02*
X785510D01*
Y356621D01*
X786296Y353686D01*
X787816Y351054D01*
X789964Y348906D01*
X792596Y347387D01*
X795531Y346600D01*
X795780D01*
Y356870D01*
D02*
G37*
G36*
X730252Y361455D02*
X727708D01*
X725249Y360796D01*
X723046Y359524D01*
X721246Y357724D01*
X719974Y355521D01*
X719315Y353062D01*
Y350518D01*
X719974Y348060D01*
X721246Y345855D01*
X723046Y344056D01*
X725249Y342784D01*
X727708Y342125D01*
X730252D01*
X732710Y342784D01*
X734914Y344056D01*
X736714Y345855D01*
X737986Y348060D01*
X738645Y350518D01*
Y353062D01*
X737986Y355521D01*
X736714Y357724D01*
X734914Y359524D01*
X732710Y360796D01*
X730252Y361455D01*
D02*
G37*
G36*
Y336055D02*
X727708D01*
X725249Y335396D01*
X723046Y334124D01*
X721246Y332324D01*
X719974Y330121D01*
X719315Y327662D01*
Y325118D01*
X719974Y322659D01*
X721246Y320456D01*
X723046Y318656D01*
X725249Y317384D01*
X727708Y316725D01*
X730252D01*
X732710Y317384D01*
X734914Y318656D01*
X736714Y320456D01*
X737986Y322659D01*
X738645Y325118D01*
Y327662D01*
X737986Y330121D01*
X736714Y332324D01*
X734914Y334124D01*
X732710Y335396D01*
X730252Y336055D01*
D02*
G37*
G36*
X879657Y336092D02*
X876618D01*
X873683Y335306D01*
X871052Y333787D01*
X868903Y331638D01*
X867384Y329007D01*
X866598Y326072D01*
Y323033D01*
X867384Y320098D01*
X868903Y317467D01*
X871052Y315318D01*
X873683Y313799D01*
X876618Y313013D01*
X879657D01*
X882592Y313799D01*
X885223Y315318D01*
X887372Y317467D01*
X888891Y320098D01*
X889677Y323033D01*
Y326072D01*
X888891Y329007D01*
X887372Y331638D01*
X885223Y333787D01*
X882592Y335306D01*
X879657Y336092D01*
D02*
G37*
G36*
X812482D02*
X809443D01*
X806508Y335306D01*
X803877Y333787D01*
X801728Y331638D01*
X800209Y329007D01*
X799423Y326072D01*
Y323033D01*
X800209Y320098D01*
X801728Y317467D01*
X803877Y315318D01*
X806508Y313799D01*
X809443Y313013D01*
X812482D01*
X815417Y313799D01*
X818048Y315318D01*
X820197Y317467D01*
X821716Y320098D01*
X822503Y323033D01*
Y326072D01*
X821716Y329007D01*
X820197Y331638D01*
X818048Y333787D01*
X815417Y335306D01*
X812482Y336092D01*
D02*
G37*
G36*
X654052Y310655D02*
X654050D01*
Y302260D01*
X662445D01*
Y302262D01*
X661786Y304720D01*
X660514Y306924D01*
X658715Y308724D01*
X656510Y309996D01*
X654052Y310655D01*
D02*
G37*
G36*
X651510D02*
X651508D01*
X649050Y309996D01*
X646845Y308724D01*
X645046Y306924D01*
X643774Y304720D01*
X643115Y302262D01*
Y302260D01*
X651510D01*
Y310655D01*
D02*
G37*
G36*
X532132D02*
X532130D01*
Y302260D01*
X540525D01*
Y302262D01*
X539866Y304720D01*
X538594Y306924D01*
X536795Y308724D01*
X534590Y309996D01*
X532132Y310655D01*
D02*
G37*
G36*
X529590D02*
X529588D01*
X527130Y309996D01*
X524925Y308724D01*
X523126Y306924D01*
X521854Y304720D01*
X521195Y302262D01*
Y302260D01*
X529590D01*
Y310655D01*
D02*
G37*
G36*
X405132D02*
X405130D01*
Y302260D01*
X413525D01*
Y302262D01*
X412866Y304720D01*
X411594Y306924D01*
X409795Y308724D01*
X407590Y309996D01*
X405132Y310655D01*
D02*
G37*
G36*
X402590D02*
X402588D01*
X400130Y309996D01*
X397925Y308724D01*
X396126Y306924D01*
X394854Y304720D01*
X394195Y302262D01*
Y302260D01*
X402590D01*
Y310655D01*
D02*
G37*
G36*
X730252D02*
X727708D01*
X725249Y309996D01*
X723046Y308724D01*
X721246Y306924D01*
X719974Y304720D01*
X719315Y302262D01*
Y299718D01*
X719974Y297260D01*
X721246Y295056D01*
X723046Y293256D01*
X725249Y291984D01*
X727708Y291325D01*
X730252D01*
X732710Y291984D01*
X734914Y293256D01*
X736714Y295056D01*
X737986Y297260D01*
X738645Y299718D01*
Y302262D01*
X737986Y304720D01*
X736714Y306924D01*
X734914Y308724D01*
X732710Y309996D01*
X730252Y310655D01*
D02*
G37*
G36*
X662445Y299720D02*
X654050D01*
Y291325D01*
X654052D01*
X656510Y291984D01*
X658715Y293256D01*
X660514Y295056D01*
X661786Y297260D01*
X662445Y299718D01*
Y299720D01*
D02*
G37*
G36*
X651510D02*
X643115D01*
Y299718D01*
X643774Y297260D01*
X645046Y295056D01*
X646845Y293256D01*
X649050Y291984D01*
X651508Y291325D01*
X651510D01*
Y299720D01*
D02*
G37*
G36*
X540525D02*
X532130D01*
Y291325D01*
X532132D01*
X534590Y291984D01*
X536795Y293256D01*
X538594Y295056D01*
X539866Y297260D01*
X540525Y299718D01*
Y299720D01*
D02*
G37*
G36*
X529590D02*
X521195D01*
Y299718D01*
X521854Y297260D01*
X523126Y295056D01*
X524925Y293256D01*
X527130Y291984D01*
X529588Y291325D01*
X529590D01*
Y299720D01*
D02*
G37*
G36*
X413525D02*
X405130D01*
Y291325D01*
X405132D01*
X407590Y291984D01*
X409795Y293256D01*
X411594Y295056D01*
X412866Y297260D01*
X413525Y299718D01*
Y299720D01*
D02*
G37*
G36*
X402590D02*
X394195D01*
Y299718D01*
X394854Y297260D01*
X396126Y295056D01*
X397925Y293256D01*
X400130Y291984D01*
X402588Y291325D01*
X402590D01*
Y299720D01*
D02*
G37*
%LPD*%
D14*
X403860Y351790D02*
X495565Y443495D01*
X533400D01*
X539427Y449522D01*
Y475419D01*
X631190Y567182D01*
X792480D01*
X799338Y560324D01*
Y510032D02*
Y560324D01*
Y510032D02*
X838200Y471170D01*
X343662Y351790D02*
X403860D01*
X280670Y353060D02*
X343662Y351790D01*
X632460Y326390D02*
X652780D01*
X607060Y300990D02*
X632460Y326390D01*
X556260Y300990D02*
X607060D01*
X530860Y326390D02*
X556260Y300990D01*
X429260D02*
X480060D01*
X403860Y326390D02*
X429260Y300990D01*
X505460Y326390D02*
X530860D01*
X480060Y300990D02*
X505460Y326390D01*
X935890Y377190D02*
X980440Y332640D01*
X728980Y377190D02*
X935890D01*
X480060D02*
X499872D01*
X511048Y388366D01*
X595884D01*
X607060Y377190D01*
X618236Y388366D01*
X717804D01*
X728980Y377190D01*
X519684Y366014D02*
X530860Y377190D01*
X472440Y366014D02*
X519684D01*
X468884Y369570D02*
X472440Y366014D01*
X468884Y369570D02*
Y384810D01*
X472440Y388366D01*
X492165D01*
X646430Y542631D01*
Y556260D01*
X269240Y339490D02*
X280670Y328060D01*
X269240Y339490D02*
Y360426D01*
X274320Y365506D01*
X335280D01*
X345440Y375666D01*
Y411480D01*
X405130Y471170D01*
X886225Y383640D02*
X980440D01*
X878137Y391727D02*
X886225Y383640D01*
X529082Y453898D02*
Y508912D01*
X576430Y556260D01*
X444754Y494584D02*
X506430Y556260D01*
X444754Y418084D02*
Y494584D01*
X403860Y377190D02*
X444754Y418084D01*
X280670Y328060D02*
X293224Y340614D01*
X641604D01*
X652780Y351790D01*
D32*
X280670Y378060D02*
D03*
Y353060D02*
D03*
Y328060D02*
D03*
X312670Y378060D02*
D03*
Y328060D02*
D03*
D33*
X296670Y411560D02*
D03*
Y294560D02*
D03*
D34*
X327660Y556260D02*
D03*
D35*
X377660D02*
D03*
D36*
X405130Y471170D02*
D03*
X513080D02*
D03*
X617220D02*
D03*
X715010D02*
D03*
X838200D02*
D03*
D37*
X480060Y377190D02*
D03*
Y351790D02*
D03*
Y326390D02*
D03*
Y300990D02*
D03*
X403860D02*
D03*
Y326390D02*
D03*
Y351790D02*
D03*
X607060Y377190D02*
D03*
Y351790D02*
D03*
Y326390D02*
D03*
Y300990D02*
D03*
X530860D02*
D03*
Y326390D02*
D03*
Y351790D02*
D03*
X728980Y377190D02*
D03*
Y351790D02*
D03*
Y326390D02*
D03*
Y300990D02*
D03*
X652780D02*
D03*
Y326390D02*
D03*
Y351790D02*
D03*
D38*
X403860Y377190D02*
D03*
X530860D02*
D03*
X652780D02*
D03*
D39*
X980440Y332640D02*
D03*
D40*
Y358140D02*
D03*
Y383640D02*
D03*
D41*
X810963Y391727D02*
D03*
D42*
X797050Y358140D02*
D03*
X810963Y324553D02*
D03*
X878137D02*
D03*
X892050Y358140D02*
D03*
X878137Y391727D02*
D03*
D43*
X506430Y556260D02*
D03*
X576430D02*
D03*
X646430D02*
D03*
X716430D02*
D03*
X786430D02*
D03*
X531830D02*
D03*
X601830D02*
D03*
X671830D02*
D03*
X741830D02*
D03*
X811830D02*
D03*
D44*
X529082Y453898D02*
D03*
M02*
