G04*
G04 #@! TF.GenerationSoftware,Altium Limited,Altium Designer,23.2.1 (34)*
G04*
G04 Layer_Physical_Order=1*
G04 Layer_Color=255*
%FSLAX44Y44*%
%MOMM*%
G71*
G04*
G04 #@! TF.SameCoordinates,2F04A12E-80DC-47A9-97FB-97186C95C1CF*
G04*
G04*
G04 #@! TF.FilePolarity,Positive*
G04*
G01*
G75*
%ADD14C,0.2540*%
%ADD15R,0.9000X1.4500*%
%ADD16R,1.4500X0.9000*%
%ADD32C,1.5000*%
%ADD33C,4.7400*%
%ADD34C,2.4000*%
%ADD35R,2.4000X2.4000*%
%ADD36R,1.7250X1.7250*%
%ADD37C,1.4250*%
%ADD38R,1.4250X1.4250*%
%ADD39R,1.9800X1.9800*%
%ADD40C,1.9800*%
%ADD41R,1.8000X1.8000*%
%ADD42C,1.8000*%
%ADD43C,1.4160*%
%ADD44C,1.2700*%
G36*
X1003300Y260350D02*
X266700D01*
Y615950D01*
X1003300D01*
Y260350D01*
D02*
G37*
%LPC*%
G36*
X329574Y570800D02*
X328930D01*
Y557530D01*
X342200D01*
Y558174D01*
X341209Y561872D01*
X339295Y565188D01*
X336588Y567895D01*
X333272Y569809D01*
X329574Y570800D01*
D02*
G37*
G36*
X813100Y565879D02*
Y557530D01*
X821449D01*
X820795Y559973D01*
X819528Y562167D01*
X817737Y563958D01*
X815543Y565224D01*
X813100Y565879D01*
D02*
G37*
G36*
X810560D02*
X808117Y565224D01*
X805923Y563958D01*
X804132Y562167D01*
X802866Y559973D01*
X802211Y557530D01*
X810560D01*
Y565879D01*
D02*
G37*
G36*
X743100D02*
Y557530D01*
X751449D01*
X750794Y559973D01*
X749528Y562167D01*
X747737Y563958D01*
X745543Y565224D01*
X743100Y565879D01*
D02*
G37*
G36*
X740560D02*
X738117Y565224D01*
X735923Y563958D01*
X734132Y562167D01*
X732866Y559973D01*
X732211Y557530D01*
X740560D01*
Y565879D01*
D02*
G37*
G36*
X673100D02*
Y557530D01*
X681449D01*
X680794Y559973D01*
X679528Y562167D01*
X677737Y563958D01*
X675543Y565224D01*
X673100Y565879D01*
D02*
G37*
G36*
X670560D02*
X668117Y565224D01*
X665923Y563958D01*
X664132Y562167D01*
X662866Y559973D01*
X662211Y557530D01*
X670560D01*
Y565879D01*
D02*
G37*
G36*
X603100D02*
Y557530D01*
X611449D01*
X610794Y559973D01*
X609528Y562167D01*
X607737Y563958D01*
X605543Y565224D01*
X603100Y565879D01*
D02*
G37*
G36*
X600560D02*
X598117Y565224D01*
X595923Y563958D01*
X594132Y562167D01*
X592866Y559973D01*
X592211Y557530D01*
X600560D01*
Y565879D01*
D02*
G37*
G36*
X533100D02*
Y557530D01*
X541449D01*
X540794Y559973D01*
X539528Y562167D01*
X537737Y563958D01*
X535543Y565224D01*
X533100Y565879D01*
D02*
G37*
G36*
X530560D02*
X528117Y565224D01*
X525923Y563958D01*
X524132Y562167D01*
X522865Y559973D01*
X522211Y557530D01*
X530560D01*
Y565879D01*
D02*
G37*
G36*
X326390Y570800D02*
X325746D01*
X322048Y569809D01*
X318732Y567895D01*
X316025Y565188D01*
X314111Y561872D01*
X313120Y558174D01*
Y557530D01*
X326390D01*
Y570800D01*
D02*
G37*
G36*
X821449Y554990D02*
X813100D01*
Y546641D01*
X815543Y547296D01*
X817737Y548562D01*
X819528Y550353D01*
X820795Y552547D01*
X821449Y554990D01*
D02*
G37*
G36*
X810560D02*
X802211D01*
X802866Y552547D01*
X804132Y550353D01*
X805923Y548562D01*
X808117Y547296D01*
X810560Y546641D01*
Y554990D01*
D02*
G37*
G36*
X751449D02*
X743100D01*
Y546641D01*
X745543Y547296D01*
X747737Y548562D01*
X749528Y550353D01*
X750794Y552547D01*
X751449Y554990D01*
D02*
G37*
G36*
X740560D02*
X732211D01*
X732866Y552547D01*
X734132Y550353D01*
X735923Y548562D01*
X738117Y547296D01*
X740560Y546641D01*
Y554990D01*
D02*
G37*
G36*
X681449D02*
X673100D01*
Y546641D01*
X675543Y547296D01*
X677737Y548562D01*
X679528Y550353D01*
X680794Y552547D01*
X681449Y554990D01*
D02*
G37*
G36*
X670560D02*
X662211D01*
X662866Y552547D01*
X664132Y550353D01*
X665923Y548562D01*
X668117Y547296D01*
X670560Y546641D01*
Y554990D01*
D02*
G37*
G36*
X611449D02*
X603100D01*
Y546641D01*
X605543Y547296D01*
X607737Y548562D01*
X609528Y550353D01*
X610794Y552547D01*
X611449Y554990D01*
D02*
G37*
G36*
X600560D02*
X592211D01*
X592866Y552547D01*
X594132Y550353D01*
X595923Y548562D01*
X598117Y547296D01*
X600560Y546641D01*
Y554990D01*
D02*
G37*
G36*
X541449D02*
X533100D01*
Y546641D01*
X535543Y547296D01*
X537737Y548562D01*
X539528Y550353D01*
X540794Y552547D01*
X541449Y554990D01*
D02*
G37*
G36*
X530560D02*
X522211D01*
X522865Y552547D01*
X524132Y550353D01*
X525923Y548562D01*
X528117Y547296D01*
X530560Y546641D01*
Y554990D01*
D02*
G37*
G36*
X647697Y565880D02*
X645163D01*
X642717Y565224D01*
X640523Y563958D01*
X638732Y562167D01*
X637466Y559973D01*
X636810Y557527D01*
Y554994D01*
X637466Y552547D01*
X638732Y550353D01*
X640523Y548562D01*
X642717Y547296D01*
X645163Y546640D01*
X647697D01*
X650143Y547296D01*
X652337Y548562D01*
X654128Y550353D01*
X655394Y552547D01*
X656050Y554994D01*
Y557527D01*
X655394Y559973D01*
X654128Y562167D01*
X652337Y563958D01*
X650143Y565224D01*
X647697Y565880D01*
D02*
G37*
G36*
X577697D02*
X575164D01*
X572717Y565224D01*
X570523Y563958D01*
X568732Y562167D01*
X567466Y559973D01*
X566810Y557527D01*
Y554994D01*
X567466Y552547D01*
X568732Y550353D01*
X570523Y548562D01*
X572717Y547296D01*
X575164Y546640D01*
X577697D01*
X580143Y547296D01*
X582337Y548562D01*
X584128Y550353D01*
X585395Y552547D01*
X586050Y554994D01*
Y557527D01*
X585395Y559973D01*
X584128Y562167D01*
X582337Y563958D01*
X580143Y565224D01*
X577697Y565880D01*
D02*
G37*
G36*
X507696D02*
X505163D01*
X502717Y565224D01*
X500523Y563958D01*
X498732Y562167D01*
X497465Y559973D01*
X496810Y557527D01*
Y554994D01*
X497465Y552547D01*
X498732Y550353D01*
X500523Y548562D01*
X502717Y547296D01*
X505163Y546640D01*
X507696D01*
X510143Y547296D01*
X512337Y548562D01*
X514128Y550353D01*
X515394Y552547D01*
X516050Y554994D01*
Y557527D01*
X515394Y559973D01*
X514128Y562167D01*
X512337Y563958D01*
X510143Y565224D01*
X507696Y565880D01*
D02*
G37*
G36*
X342200Y554990D02*
X328930D01*
Y541720D01*
X329574D01*
X333272Y542711D01*
X336588Y544625D01*
X339295Y547332D01*
X341209Y550648D01*
X342200Y554346D01*
Y554990D01*
D02*
G37*
G36*
X326390D02*
X313120D01*
Y554346D01*
X314111Y550648D01*
X316025Y547332D01*
X318732Y544625D01*
X322048Y542711D01*
X325746Y541720D01*
X326390D01*
Y554990D01*
D02*
G37*
G36*
X346100Y480960D02*
X340330D01*
Y472440D01*
X346100D01*
Y480960D01*
D02*
G37*
G36*
X392200Y570800D02*
X363120D01*
Y547214D01*
X355139Y539233D01*
X354297Y537973D01*
X354001Y536486D01*
Y480960D01*
X348640D01*
Y471170D01*
Y461380D01*
X354001D01*
Y393192D01*
X354297Y391705D01*
X355139Y390445D01*
X383841Y361743D01*
X385101Y360901D01*
X386588Y360605D01*
X397470D01*
X397737Y359335D01*
X396126Y357724D01*
X394854Y355521D01*
X394195Y353062D01*
Y350518D01*
X394854Y348060D01*
X396126Y345855D01*
X397925Y344056D01*
X400130Y342784D01*
X402588Y342125D01*
X405132D01*
X407590Y342784D01*
X409795Y344056D01*
X411594Y345855D01*
X412866Y348060D01*
X413525Y350518D01*
Y353062D01*
X412866Y355521D01*
X411594Y357724D01*
X409983Y359335D01*
X410250Y360605D01*
X467360D01*
X468847Y360901D01*
X470107Y361743D01*
X476501Y368138D01*
X478788Y367525D01*
X481332D01*
X483791Y368184D01*
X485994Y369456D01*
X487794Y371255D01*
X489066Y373460D01*
X489725Y375918D01*
Y378462D01*
X489066Y380920D01*
X487794Y383125D01*
X485994Y384924D01*
X483791Y386196D01*
X481332Y386855D01*
X478788D01*
X476329Y386196D01*
X474126Y384924D01*
X472326Y383125D01*
X471054Y380920D01*
X470395Y378462D01*
Y375918D01*
X471008Y373631D01*
X465751Y368375D01*
X413525D01*
Y386855D01*
X394195D01*
Y368375D01*
X388197D01*
X361771Y394801D01*
Y461380D01*
X373410D01*
Y467285D01*
X393965D01*
Y460005D01*
X416295D01*
Y467285D01*
X439390D01*
Y461380D01*
X453061D01*
Y425704D01*
X453357Y424217D01*
X454199Y422957D01*
X521808Y355349D01*
X521195Y353062D01*
Y350518D01*
X521854Y348060D01*
X523126Y345855D01*
X524737Y344245D01*
X524470Y342975D01*
X494369D01*
X489112Y348231D01*
X489725Y350518D01*
Y353062D01*
X489066Y355521D01*
X487794Y357724D01*
X485994Y359524D01*
X483791Y360796D01*
X481332Y361455D01*
X478788D01*
X476329Y360796D01*
X474126Y359524D01*
X472326Y357724D01*
X471054Y355521D01*
X470395Y353062D01*
Y350518D01*
X471054Y348060D01*
X472326Y345855D01*
X474126Y344056D01*
X476329Y342784D01*
X478788Y342125D01*
X481332D01*
X483619Y342738D01*
X490013Y336343D01*
X491273Y335501D01*
X492760Y335205D01*
X524470D01*
X524737Y333935D01*
X523126Y332324D01*
X521854Y330121D01*
X521195Y327662D01*
Y325118D01*
X521854Y322659D01*
X523126Y320456D01*
X523310Y320272D01*
X522824Y319099D01*
X492845D01*
X489112Y322831D01*
X489725Y325118D01*
Y327662D01*
X489066Y330121D01*
X487794Y332324D01*
X485994Y334124D01*
X483791Y335396D01*
X481332Y336055D01*
X478788D01*
X476329Y335396D01*
X474126Y334124D01*
X472326Y332324D01*
X471054Y330121D01*
X470395Y327662D01*
Y325118D01*
X471054Y322659D01*
X472326Y320456D01*
X474126Y318656D01*
X476329Y317384D01*
X478788Y316725D01*
X481332D01*
X483619Y317338D01*
X488489Y312467D01*
X489749Y311625D01*
X491236Y311329D01*
X527197D01*
X527365Y310059D01*
X527130Y309996D01*
X524925Y308724D01*
X523126Y306924D01*
X521854Y304720D01*
X521195Y302262D01*
Y302260D01*
X540525D01*
Y302262D01*
X539866Y304720D01*
X538594Y306924D01*
X536795Y308724D01*
X534590Y309996D01*
X534355Y310059D01*
X534523Y311329D01*
X603397D01*
X603565Y310059D01*
X603330Y309996D01*
X601125Y308724D01*
X599326Y306924D01*
X598054Y304720D01*
X597395Y302262D01*
Y299718D01*
X598054Y297260D01*
X599326Y295056D01*
X601125Y293256D01*
X603330Y291984D01*
X605788Y291325D01*
X608332D01*
X610790Y291984D01*
X612994Y293256D01*
X614794Y295056D01*
X616066Y297260D01*
X616725Y299718D01*
Y302262D01*
X616066Y304720D01*
X614794Y306924D01*
X612994Y308724D01*
X610790Y309996D01*
X610555Y310059D01*
X610723Y311329D01*
X629920D01*
X631407Y311625D01*
X632667Y312467D01*
X642622Y322422D01*
X644096Y322100D01*
X645046Y320456D01*
X646845Y318656D01*
X649050Y317384D01*
X651508Y316725D01*
X654052D01*
X656510Y317384D01*
X658715Y318656D01*
X660514Y320456D01*
X661786Y322659D01*
X662445Y325118D01*
Y327662D01*
X661832Y329949D01*
X715877Y383993D01*
X716719Y385253D01*
X717014Y386740D01*
Y408040D01*
X720170D01*
Y427620D01*
X706090D01*
Y408040D01*
X709245D01*
Y388349D01*
X656339Y335442D01*
X654052Y336055D01*
X651508D01*
X649050Y335396D01*
X646999Y334213D01*
X645729Y334597D01*
Y343583D01*
X646999Y343967D01*
X649050Y342784D01*
X651508Y342125D01*
X654052D01*
X656510Y342784D01*
X658715Y344056D01*
X660514Y345855D01*
X661786Y348060D01*
X662445Y350518D01*
Y353062D01*
X661786Y355521D01*
X660514Y357724D01*
X658715Y359524D01*
X656510Y360796D01*
X654052Y361455D01*
X651508D01*
X649050Y360796D01*
X646999Y359613D01*
X645729Y359997D01*
Y367525D01*
X662445D01*
Y373305D01*
X675640D01*
X677127Y373601D01*
X678387Y374443D01*
X699977Y396033D01*
X700819Y397293D01*
X701115Y398780D01*
Y425111D01*
X708999Y432995D01*
X771906D01*
X773393Y433291D01*
X774653Y434133D01*
X799291Y458771D01*
X800133Y460031D01*
X800401Y461380D01*
X814100D01*
Y467285D01*
X827035D01*
Y460005D01*
X849365D01*
Y466142D01*
X850272Y467031D01*
X900906Y465966D01*
X900947Y465974D01*
X900988Y465966D01*
X951600D01*
Y462810D01*
X971180D01*
Y476890D01*
X951600D01*
Y473735D01*
X901028D01*
X849365Y474821D01*
Y482335D01*
X827035D01*
Y475055D01*
X814100D01*
Y480960D01*
X800429D01*
Y546146D01*
X800133Y547633D01*
X799291Y548893D01*
X795446Y552738D01*
X796050Y554994D01*
Y557527D01*
X795395Y559973D01*
X794128Y562167D01*
X792337Y563958D01*
X790143Y565224D01*
X787697Y565880D01*
X785164D01*
X782717Y565224D01*
X780523Y563958D01*
X778732Y562167D01*
X777466Y559973D01*
X776810Y557527D01*
Y554994D01*
X777466Y552547D01*
X778732Y550353D01*
X780523Y548562D01*
X782717Y547296D01*
X785164Y546640D01*
X787697D01*
X789952Y547244D01*
X792659Y544537D01*
Y480960D01*
X781020D01*
Y475055D01*
X726175D01*
Y482335D01*
X703845D01*
Y475055D01*
X688370D01*
Y480960D01*
X674699D01*
Y509035D01*
X712908Y547244D01*
X715163Y546640D01*
X717696D01*
X720143Y547296D01*
X722337Y548562D01*
X724128Y550353D01*
X725394Y552547D01*
X726050Y554994D01*
Y557527D01*
X725394Y559973D01*
X724128Y562167D01*
X722337Y563958D01*
X720143Y565224D01*
X717696Y565880D01*
X715163D01*
X712717Y565224D01*
X710523Y563958D01*
X708732Y562167D01*
X707466Y559973D01*
X706810Y557527D01*
Y554994D01*
X707414Y552738D01*
X668067Y513391D01*
X667225Y512131D01*
X666929Y510644D01*
Y480960D01*
X655290D01*
Y475055D01*
X628385D01*
Y482335D01*
X606055D01*
Y475055D01*
X597662D01*
X596175Y474759D01*
X594915Y473917D01*
X594783Y473785D01*
X584230D01*
Y479690D01*
X580322D01*
X579937Y480267D01*
X563681Y496523D01*
X562421Y497365D01*
X560934Y497661D01*
X467360D01*
X465873Y497365D01*
X464613Y496523D01*
X454199Y486109D01*
X453357Y484849D01*
X453061Y483362D01*
Y480960D01*
X439390D01*
Y475055D01*
X416295D01*
Y482335D01*
X393965D01*
Y475055D01*
X373410D01*
Y480960D01*
X361771D01*
Y534877D01*
X368614Y541720D01*
X392200D01*
Y570800D01*
D02*
G37*
G36*
X346100Y469900D02*
X340330D01*
Y461380D01*
X346100D01*
Y469900D01*
D02*
G37*
G36*
X299254Y437800D02*
X294086D01*
X289016Y436792D01*
X284241Y434814D01*
X279943Y431942D01*
X276288Y428287D01*
X273416Y423990D01*
X271438Y419214D01*
X270430Y414145D01*
Y408976D01*
X271438Y403906D01*
X273416Y399131D01*
X276288Y394833D01*
X279943Y391178D01*
X282977Y389151D01*
X282446Y387979D01*
X281992Y388100D01*
X279348D01*
X276795Y387416D01*
X274505Y386094D01*
X272636Y384225D01*
X271314Y381936D01*
X270630Y379382D01*
Y376738D01*
X271314Y374185D01*
X272636Y371895D01*
X274505Y370026D01*
X276795Y368704D01*
X279348Y368020D01*
X281992D01*
X284545Y368704D01*
X286835Y370026D01*
X288704Y371895D01*
X290026Y374185D01*
X290710Y376738D01*
Y379382D01*
X290026Y381936D01*
X288704Y384225D01*
X287239Y385690D01*
X287958Y386767D01*
X289016Y386329D01*
X294086Y385320D01*
X299254D01*
X304324Y386329D01*
X305382Y386767D01*
X306101Y385690D01*
X304636Y384225D01*
X303314Y381936D01*
X302630Y379382D01*
Y376738D01*
X303314Y374185D01*
X304636Y371895D01*
X306505Y370026D01*
X308795Y368704D01*
X311348Y368020D01*
X313992D01*
X316545Y368704D01*
X318835Y370026D01*
X320704Y371895D01*
X322026Y374185D01*
X322710Y376738D01*
Y379382D01*
X322026Y381936D01*
X320704Y384225D01*
X318835Y386094D01*
X316545Y387416D01*
X313992Y388100D01*
X311348D01*
X310894Y387979D01*
X310363Y389151D01*
X313397Y391178D01*
X317052Y394833D01*
X319924Y399131D01*
X321902Y403906D01*
X322910Y408976D01*
Y414145D01*
X321902Y419214D01*
X319924Y423990D01*
X317052Y428287D01*
X313397Y431942D01*
X309099Y434814D01*
X304324Y436792D01*
X299254Y437800D01*
D02*
G37*
G36*
X730252Y386855D02*
X727708D01*
X725249Y386196D01*
X723046Y384924D01*
X721246Y383125D01*
X719974Y380920D01*
X719315Y378462D01*
Y375918D01*
X719974Y373460D01*
X721246Y371255D01*
X723046Y369456D01*
X725249Y368184D01*
X727708Y367525D01*
X730252D01*
X732710Y368184D01*
X734914Y369456D01*
X736714Y371255D01*
X737986Y373460D01*
X738645Y375918D01*
Y378462D01*
X737986Y380920D01*
X736714Y383125D01*
X734914Y384924D01*
X732710Y386196D01*
X730252Y386855D01*
D02*
G37*
G36*
X739170Y427620D02*
X725090D01*
Y408040D01*
X728245D01*
Y406400D01*
X728541Y404913D01*
X729383Y403653D01*
X744056Y388981D01*
X745316Y388139D01*
X746803Y387843D01*
X799423D01*
Y380187D01*
X807078D01*
Y366228D01*
X805808Y365702D01*
X804136Y367374D01*
X801504Y368894D01*
X798569Y369680D01*
X798320D01*
Y358140D01*
Y346600D01*
X798569D01*
X801504Y347387D01*
X804136Y348906D01*
X805808Y350578D01*
X807078Y350052D01*
Y335459D01*
X806508Y335306D01*
X803877Y333787D01*
X801728Y331638D01*
X800209Y329007D01*
X799423Y326072D01*
Y323033D01*
X800209Y320098D01*
X801728Y317467D01*
X803877Y315318D01*
X806508Y313799D01*
X809443Y313013D01*
X812482D01*
X815417Y313799D01*
X818048Y315318D01*
X820197Y317467D01*
X821716Y320098D01*
X822503Y323033D01*
Y326072D01*
X821716Y329007D01*
X820197Y331638D01*
X818048Y333787D01*
X815417Y335306D01*
X814847Y335459D01*
Y380187D01*
X822503D01*
Y403267D01*
X799423D01*
Y395612D01*
X748412D01*
X737254Y406770D01*
X737780Y408040D01*
X739170D01*
Y427620D01*
D02*
G37*
G36*
X795780Y369680D02*
X795531D01*
X792596Y368894D01*
X789964Y367374D01*
X787816Y365226D01*
X786296Y362594D01*
X785510Y359659D01*
Y359410D01*
X795780D01*
Y369680D01*
D02*
G37*
G36*
X971180Y457890D02*
X951600D01*
Y443810D01*
X971180D01*
Y446965D01*
X973751D01*
X976555Y444161D01*
Y395478D01*
X975638Y395232D01*
X972802Y393595D01*
X970486Y391278D01*
X968848Y388442D01*
X968000Y385278D01*
Y382002D01*
X968848Y378838D01*
X970486Y376002D01*
X972802Y373686D01*
X975638Y372048D01*
X977506Y371547D01*
Y370233D01*
X975638Y369732D01*
X972802Y368094D01*
X970486Y365778D01*
X968848Y362942D01*
X968000Y359778D01*
Y359410D01*
X980440D01*
X992880D01*
Y359778D01*
X992032Y362942D01*
X990395Y365778D01*
X988078Y368094D01*
X985242Y369732D01*
X983374Y370233D01*
Y371547D01*
X985242Y372048D01*
X988078Y373686D01*
X990395Y376002D01*
X992032Y378838D01*
X992880Y382002D01*
Y385278D01*
X992032Y388442D01*
X990395Y391278D01*
X988078Y393595D01*
X985242Y395232D01*
X984325Y395478D01*
Y445770D01*
X984029Y447257D01*
X983187Y448517D01*
X978107Y453597D01*
X976847Y454439D01*
X975360Y454735D01*
X971180D01*
Y457890D01*
D02*
G37*
G36*
X795780Y356870D02*
X785510D01*
Y356621D01*
X786296Y353686D01*
X787816Y351054D01*
X789964Y348906D01*
X792596Y347387D01*
X795531Y346600D01*
X795780D01*
Y356870D01*
D02*
G37*
G36*
X281992Y363100D02*
X279348D01*
X276795Y362416D01*
X274505Y361094D01*
X272636Y359225D01*
X271314Y356935D01*
X270630Y354382D01*
Y351738D01*
X271314Y349185D01*
X272636Y346895D01*
X274505Y345026D01*
X276795Y343704D01*
X279348Y343020D01*
X281992D01*
X284545Y343704D01*
X286835Y345026D01*
X288704Y346895D01*
X290026Y349185D01*
X290710Y351738D01*
Y354382D01*
X290026Y356935D01*
X288704Y359225D01*
X286835Y361094D01*
X284545Y362416D01*
X281992Y363100D01*
D02*
G37*
G36*
X730252Y361455D02*
X727708D01*
X725249Y360796D01*
X723046Y359524D01*
X721246Y357724D01*
X719974Y355521D01*
X719315Y353062D01*
Y350518D01*
X719974Y348060D01*
X721246Y345855D01*
X723046Y344056D01*
X725249Y342784D01*
X727708Y342125D01*
X730252D01*
X732710Y342784D01*
X734914Y344056D01*
X736714Y345855D01*
X737986Y348060D01*
X738645Y350518D01*
Y353062D01*
X737986Y355521D01*
X736714Y357724D01*
X734914Y359524D01*
X732710Y360796D01*
X730252Y361455D01*
D02*
G37*
G36*
X879657Y403267D02*
X876618D01*
X873683Y402481D01*
X871052Y400962D01*
X868903Y398813D01*
X867384Y396182D01*
X866598Y393247D01*
Y390208D01*
X867384Y387273D01*
X868903Y384642D01*
X871052Y382493D01*
X873683Y380974D01*
X874253Y380821D01*
Y372053D01*
X874548Y370566D01*
X875391Y369306D01*
X881591Y363105D01*
X881296Y362594D01*
X880510Y359659D01*
Y356621D01*
X881296Y353686D01*
X882816Y351054D01*
X884964Y348906D01*
X887596Y347387D01*
X888165Y347234D01*
Y340074D01*
X883102Y335011D01*
X882592Y335306D01*
X879657Y336092D01*
X876618D01*
X873683Y335306D01*
X871052Y333787D01*
X868903Y331638D01*
X867384Y329007D01*
X866598Y326072D01*
Y323033D01*
X867384Y320098D01*
X868903Y317467D01*
X871052Y315318D01*
X873683Y313799D01*
X876618Y313013D01*
X879657D01*
X882592Y313799D01*
X885223Y315318D01*
X887372Y317467D01*
X888891Y320098D01*
X889677Y323033D01*
Y326072D01*
X888891Y329007D01*
X888596Y329518D01*
X894797Y335718D01*
X895639Y336979D01*
X895935Y338465D01*
Y347234D01*
X896504Y347387D01*
X899136Y348906D01*
X901284Y351054D01*
X902804Y353686D01*
X903590Y356621D01*
Y359659D01*
X902804Y362594D01*
X901284Y365226D01*
X899136Y367374D01*
X896504Y368894D01*
X893569Y369680D01*
X890531D01*
X887596Y368894D01*
X887085Y368599D01*
X882022Y373662D01*
Y380821D01*
X882592Y380974D01*
X885223Y382493D01*
X887372Y384642D01*
X888891Y387273D01*
X889677Y390208D01*
Y393247D01*
X888891Y396182D01*
X887372Y398813D01*
X885223Y400962D01*
X882592Y402481D01*
X879657Y403267D01*
D02*
G37*
G36*
X992880Y356870D02*
X980440D01*
X968000D01*
Y356502D01*
X968848Y353338D01*
X970486Y350502D01*
X972802Y348186D01*
X975638Y346548D01*
X976377Y346350D01*
X976209Y345080D01*
X968000D01*
Y320200D01*
X992880D01*
Y345080D01*
X984670D01*
X984503Y346350D01*
X985242Y346548D01*
X988078Y348186D01*
X990395Y350502D01*
X992032Y353338D01*
X992880Y356502D01*
Y356870D01*
D02*
G37*
G36*
X313992Y338100D02*
X311348D01*
X308795Y337416D01*
X306505Y336094D01*
X304636Y334225D01*
X303314Y331935D01*
X302630Y329382D01*
Y326738D01*
X303314Y324184D01*
X304636Y321895D01*
X306100Y320431D01*
X305381Y319354D01*
X304324Y319792D01*
X299254Y320800D01*
X294086D01*
X289016Y319792D01*
X287959Y319354D01*
X287240Y320431D01*
X288704Y321895D01*
X290026Y324184D01*
X290710Y326738D01*
Y329382D01*
X290026Y331935D01*
X288704Y334225D01*
X286835Y336094D01*
X284545Y337416D01*
X281992Y338100D01*
X279348D01*
X276795Y337416D01*
X274505Y336094D01*
X272636Y334225D01*
X271314Y331935D01*
X270630Y329382D01*
Y326738D01*
X271314Y324184D01*
X272636Y321895D01*
X274505Y320026D01*
X276795Y318704D01*
X279348Y318020D01*
X281992D01*
X282444Y318141D01*
X282976Y316969D01*
X279943Y314942D01*
X276288Y311287D01*
X273416Y306990D01*
X271438Y302214D01*
X270430Y297145D01*
Y291976D01*
X271438Y286906D01*
X273416Y282131D01*
X276288Y277833D01*
X279943Y274178D01*
X284241Y271307D01*
X289016Y269329D01*
X294086Y268320D01*
X299254D01*
X304324Y269329D01*
X309099Y271307D01*
X313397Y274178D01*
X317052Y277833D01*
X319924Y282131D01*
X321902Y286906D01*
X322910Y291976D01*
Y297145D01*
X321902Y302214D01*
X319924Y306990D01*
X317052Y311287D01*
X313397Y314942D01*
X310364Y316969D01*
X310895Y318141D01*
X311348Y318020D01*
X313992D01*
X316545Y318704D01*
X318835Y320026D01*
X320704Y321895D01*
X322026Y324184D01*
X322710Y326738D01*
Y329382D01*
X322026Y331935D01*
X320704Y334225D01*
X318835Y336094D01*
X316545Y337416D01*
X313992Y338100D01*
D02*
G37*
G36*
X730252Y336055D02*
X727708D01*
X725249Y335396D01*
X723046Y334124D01*
X721246Y332324D01*
X719974Y330121D01*
X719315Y327662D01*
Y325118D01*
X719974Y322659D01*
X721246Y320456D01*
X723046Y318656D01*
X725249Y317384D01*
X727708Y316725D01*
X730252D01*
X732710Y317384D01*
X734914Y318656D01*
X736714Y320456D01*
X737986Y322659D01*
X738645Y325118D01*
Y327662D01*
X737986Y330121D01*
X736714Y332324D01*
X734914Y334124D01*
X732710Y335396D01*
X730252Y336055D01*
D02*
G37*
G36*
X405132D02*
X402588D01*
X400130Y335396D01*
X397925Y334124D01*
X396126Y332324D01*
X394854Y330121D01*
X394195Y327662D01*
Y325118D01*
X394854Y322659D01*
X396126Y320456D01*
X397925Y318656D01*
X400130Y317384D01*
X402588Y316725D01*
X405132D01*
X407590Y317384D01*
X409795Y318656D01*
X411594Y320456D01*
X412866Y322659D01*
X413525Y325118D01*
Y327662D01*
X412866Y330121D01*
X411594Y332324D01*
X409795Y334124D01*
X407590Y335396D01*
X405132Y336055D01*
D02*
G37*
G36*
X654052Y310655D02*
X654050D01*
Y302260D01*
X662445D01*
Y302262D01*
X661786Y304720D01*
X660514Y306924D01*
X658715Y308724D01*
X656510Y309996D01*
X654052Y310655D01*
D02*
G37*
G36*
X651510D02*
X651508D01*
X649050Y309996D01*
X646845Y308724D01*
X645046Y306924D01*
X643774Y304720D01*
X643115Y302262D01*
Y302260D01*
X651510D01*
Y310655D01*
D02*
G37*
G36*
X405132D02*
X405130D01*
Y302260D01*
X413525D01*
Y302262D01*
X412866Y304720D01*
X411594Y306924D01*
X409795Y308724D01*
X407590Y309996D01*
X405132Y310655D01*
D02*
G37*
G36*
X402590D02*
X402588D01*
X400130Y309996D01*
X397925Y308724D01*
X396126Y306924D01*
X394854Y304720D01*
X394195Y302262D01*
Y302260D01*
X402590D01*
Y310655D01*
D02*
G37*
G36*
X730252D02*
X727708D01*
X725249Y309996D01*
X723046Y308724D01*
X721246Y306924D01*
X719974Y304720D01*
X719315Y302262D01*
Y299718D01*
X719974Y297260D01*
X721246Y295056D01*
X723046Y293256D01*
X725249Y291984D01*
X727708Y291325D01*
X730252D01*
X732710Y291984D01*
X734914Y293256D01*
X736714Y295056D01*
X737986Y297260D01*
X738645Y299718D01*
Y302262D01*
X737986Y304720D01*
X736714Y306924D01*
X734914Y308724D01*
X732710Y309996D01*
X730252Y310655D01*
D02*
G37*
G36*
X662445Y299720D02*
X654050D01*
Y291325D01*
X654052D01*
X656510Y291984D01*
X658715Y293256D01*
X660514Y295056D01*
X661786Y297260D01*
X662445Y299718D01*
Y299720D01*
D02*
G37*
G36*
X651510D02*
X643115D01*
Y299718D01*
X643774Y297260D01*
X645046Y295056D01*
X646845Y293256D01*
X649050Y291984D01*
X651508Y291325D01*
X651510D01*
Y299720D01*
D02*
G37*
G36*
X540525D02*
X532130D01*
Y291325D01*
X532132D01*
X534590Y291984D01*
X536795Y293256D01*
X538594Y295056D01*
X539866Y297260D01*
X540525Y299718D01*
Y299720D01*
D02*
G37*
G36*
X529590D02*
X521195D01*
Y299718D01*
X521854Y297260D01*
X523126Y295056D01*
X524925Y293256D01*
X527130Y291984D01*
X529588Y291325D01*
X529590D01*
Y299720D01*
D02*
G37*
G36*
X481332Y310655D02*
X478788D01*
X476329Y309996D01*
X474126Y308724D01*
X472326Y306924D01*
X471054Y304720D01*
X470395Y302262D01*
Y299718D01*
X471054Y297260D01*
X472326Y295056D01*
X474126Y293256D01*
X476329Y291984D01*
X478788Y291325D01*
X481332D01*
X483791Y291984D01*
X485994Y293256D01*
X487794Y295056D01*
X489066Y297260D01*
X489725Y299718D01*
Y302262D01*
X489066Y304720D01*
X487794Y306924D01*
X485994Y308724D01*
X483791Y309996D01*
X481332Y310655D01*
D02*
G37*
G36*
X413525Y299720D02*
X405130D01*
Y291325D01*
X405132D01*
X407590Y291984D01*
X409795Y293256D01*
X411594Y295056D01*
X412866Y297260D01*
X413525Y299718D01*
Y299720D01*
D02*
G37*
G36*
X402590D02*
X394195D01*
Y299718D01*
X394854Y297260D01*
X396126Y295056D01*
X397925Y293256D01*
X400130Y291984D01*
X402588Y291325D01*
X402590D01*
Y299720D01*
D02*
G37*
%LPD*%
G36*
X781020Y461380D02*
X789253D01*
X789739Y460207D01*
X770297Y440765D01*
X707390D01*
X705903Y440469D01*
X704643Y439627D01*
X694483Y429467D01*
X693641Y428207D01*
X693345Y426720D01*
Y400389D01*
X674031Y381075D01*
X662445D01*
Y386855D01*
X647728D01*
X647242Y388028D01*
X684077Y424864D01*
X684919Y426124D01*
X685215Y427611D01*
Y461380D01*
X688370D01*
Y467285D01*
X703845D01*
Y460005D01*
X726175D01*
Y467285D01*
X781020D01*
Y461380D01*
D02*
G37*
G36*
X501915Y460005D02*
X520886D01*
X521609Y458735D01*
X520798Y457329D01*
X520192Y455068D01*
Y452728D01*
X520798Y450467D01*
X521968Y448439D01*
X523623Y446784D01*
X525651Y445614D01*
X527912Y445008D01*
X530252D01*
X532008Y445478D01*
X538151Y439335D01*
Y386855D01*
X521195D01*
Y368745D01*
X519925Y368219D01*
X460831Y427313D01*
Y461380D01*
X472470D01*
Y467285D01*
X501915D01*
Y460005D01*
D02*
G37*
G36*
X570150Y479066D02*
Y460110D01*
X584230D01*
Y466015D01*
X596392D01*
X597879Y466311D01*
X599139Y467153D01*
X599271Y467285D01*
X606055D01*
Y460005D01*
X628385D01*
Y467285D01*
X655290D01*
Y461380D01*
X666929D01*
Y428863D01*
X634018Y395952D01*
X633176Y394692D01*
X632880Y393205D01*
Y383104D01*
X610619Y360842D01*
X608332Y361455D01*
X605788D01*
X603330Y360796D01*
X601125Y359524D01*
X599326Y357724D01*
X598054Y355521D01*
X597395Y353062D01*
Y350518D01*
X598054Y348060D01*
X599326Y345855D01*
X601125Y344056D01*
X603330Y342784D01*
X605788Y342125D01*
X608332D01*
X610790Y342784D01*
X612994Y344056D01*
X614794Y345855D01*
X616066Y348060D01*
X616725Y350518D01*
Y353062D01*
X616112Y355349D01*
X636787Y376023D01*
X637960Y375537D01*
Y328748D01*
X628311Y319099D01*
X615096D01*
X614610Y320272D01*
X614794Y320456D01*
X616066Y322659D01*
X616725Y325118D01*
Y327662D01*
X616066Y330121D01*
X614794Y332324D01*
X612994Y334124D01*
X610790Y335396D01*
X608332Y336055D01*
X605788D01*
X603501Y335442D01*
X562075Y376869D01*
Y460110D01*
X565230D01*
Y479690D01*
X551150D01*
Y473785D01*
X545884D01*
X545752Y473917D01*
X544491Y474759D01*
X543005Y475055D01*
X524245D01*
Y482335D01*
X501915D01*
Y475055D01*
X472470D01*
Y480960D01*
X461834D01*
X461308Y482230D01*
X468969Y489891D01*
X559325D01*
X570150Y479066D01*
D02*
G37*
G36*
X541528Y467153D02*
X542788Y466311D01*
X544275Y466015D01*
X551150D01*
Y460110D01*
X554305D01*
Y375260D01*
X554601Y373773D01*
X555443Y372513D01*
X598008Y329949D01*
X597395Y327662D01*
Y325118D01*
X598054Y322659D01*
X599326Y320456D01*
X599510Y320272D01*
X599024Y319099D01*
X538896D01*
X538410Y320272D01*
X538594Y320456D01*
X539866Y322659D01*
X540525Y325118D01*
Y327662D01*
X539866Y330121D01*
X538594Y332324D01*
X536795Y334124D01*
X536785Y334129D01*
X537006Y335468D01*
X537173Y335501D01*
X538433Y336343D01*
X544783Y342693D01*
X545625Y343953D01*
X545921Y345440D01*
Y440944D01*
X545625Y442431D01*
X544783Y443691D01*
X537502Y450972D01*
X537972Y452728D01*
Y455068D01*
X537366Y457329D01*
X536196Y459357D01*
X534541Y461012D01*
X532513Y462182D01*
X530252Y462788D01*
X527912D01*
X525651Y462182D01*
X525345Y462006D01*
X524245Y462641D01*
Y467285D01*
X541396D01*
X541528Y467153D01*
D02*
G37*
%LPC*%
G36*
X608332Y386855D02*
X605788D01*
X603330Y386196D01*
X601125Y384924D01*
X599326Y383125D01*
X598054Y380920D01*
X597395Y378462D01*
Y375918D01*
X598054Y373460D01*
X599326Y371255D01*
X601125Y369456D01*
X603330Y368184D01*
X605788Y367525D01*
X608332D01*
X610790Y368184D01*
X612994Y369456D01*
X614794Y371255D01*
X616066Y373460D01*
X616725Y375918D01*
Y378462D01*
X616066Y380920D01*
X614794Y383125D01*
X612994Y384924D01*
X610790Y386196D01*
X608332Y386855D01*
D02*
G37*
%LPD*%
D14*
X900988Y469850D02*
X961390D01*
X838200Y471170D02*
X900988Y469850D01*
X681330Y427611D02*
Y471170D01*
X641845Y388125D02*
X681330Y427611D01*
X641845Y327139D02*
Y388125D01*
X629920Y315214D02*
X641845Y327139D01*
X491236Y315214D02*
X629920D01*
X480060Y326390D02*
X491236Y315214D01*
X670814Y510644D02*
X716430Y556260D01*
X670814Y427254D02*
Y510644D01*
X636765Y393205D02*
X670814Y427254D01*
X636765Y381495D02*
Y393205D01*
X607060Y351790D02*
X636765Y381495D01*
X878137Y372053D02*
Y391727D01*
Y372053D02*
X892050Y358140D01*
Y338465D02*
Y358140D01*
X878137Y324553D02*
X892050Y338465D01*
X357886Y536486D02*
X377660Y556260D01*
X357886Y393192D02*
Y536486D01*
Y393192D02*
X386588Y364490D01*
X467360D01*
X480060Y377190D01*
X544275Y469900D02*
X558190D01*
X543005Y471170D02*
X544275Y469900D01*
X513080Y471170D02*
X543005D01*
X480060Y351790D02*
X492760Y339090D01*
X535686D01*
X542036Y345440D01*
Y440944D01*
X529082Y453898D02*
X542036Y440944D01*
X786430Y556260D02*
X796544Y546146D01*
Y461518D02*
Y546146D01*
X771906Y436880D02*
X796544Y461518D01*
X707390Y436880D02*
X771906D01*
X697230Y426720D02*
X707390Y436880D01*
X697230Y398780D02*
Y426720D01*
X675640Y377190D02*
X697230Y398780D01*
X652780Y377190D02*
X675640D01*
X456946Y425704D02*
X530860Y351790D01*
X456946Y425704D02*
Y483362D01*
X467360Y493776D01*
X560934D01*
X577190Y477520D01*
Y469900D02*
Y477520D01*
X652780Y326390D02*
X713130Y386740D01*
Y417830D01*
X558190Y375260D02*
X607060Y326390D01*
X558190Y375260D02*
Y469900D01*
X732130Y406400D02*
Y417830D01*
Y406400D02*
X746803Y391727D01*
X810963D01*
X980440Y383640D02*
Y445770D01*
X975360Y450850D02*
X980440Y445770D01*
X961390Y450850D02*
X975360D01*
X807060Y471170D02*
X838200D01*
X715010D02*
X788060D01*
X681330D02*
X715010D01*
X617220D02*
X662330D01*
X597662D02*
X617220D01*
X596392Y469900D02*
X597662Y471170D01*
X577190Y469900D02*
X596392D01*
X465430Y471170D02*
X513080D01*
X405130D02*
X446430D01*
X366370D02*
X405130D01*
X810963Y324553D02*
Y391727D01*
D15*
X347370Y471170D02*
D03*
X366370D02*
D03*
X446430D02*
D03*
X465430D02*
D03*
X558190Y469900D02*
D03*
X577190D02*
D03*
X662330Y471170D02*
D03*
X681330D02*
D03*
X788060D02*
D03*
X807060D02*
D03*
X713130Y417830D02*
D03*
X732130D02*
D03*
D16*
X961390Y469850D02*
D03*
Y450850D02*
D03*
D32*
X280670Y378060D02*
D03*
Y353060D02*
D03*
Y328060D02*
D03*
X312670Y378060D02*
D03*
Y328060D02*
D03*
D33*
X296670Y411560D02*
D03*
Y294560D02*
D03*
D34*
X327660Y556260D02*
D03*
D35*
X377660D02*
D03*
D36*
X405130Y471170D02*
D03*
X513080D02*
D03*
X617220D02*
D03*
X715010D02*
D03*
X838200D02*
D03*
D37*
X480060Y377190D02*
D03*
Y351790D02*
D03*
Y326390D02*
D03*
Y300990D02*
D03*
X403860D02*
D03*
Y326390D02*
D03*
Y351790D02*
D03*
X607060Y377190D02*
D03*
Y351790D02*
D03*
Y326390D02*
D03*
Y300990D02*
D03*
X530860D02*
D03*
Y326390D02*
D03*
Y351790D02*
D03*
X728980Y377190D02*
D03*
Y351790D02*
D03*
Y326390D02*
D03*
Y300990D02*
D03*
X652780D02*
D03*
Y326390D02*
D03*
Y351790D02*
D03*
D38*
X403860Y377190D02*
D03*
X530860D02*
D03*
X652780D02*
D03*
D39*
X980440Y332640D02*
D03*
D40*
Y358140D02*
D03*
Y383640D02*
D03*
D41*
X810963Y391727D02*
D03*
D42*
X797050Y358140D02*
D03*
X810963Y324553D02*
D03*
X878137D02*
D03*
X892050Y358140D02*
D03*
X878137Y391727D02*
D03*
D43*
X506430Y556260D02*
D03*
X576430D02*
D03*
X646430D02*
D03*
X716430D02*
D03*
X786430D02*
D03*
X531830D02*
D03*
X601830D02*
D03*
X671830D02*
D03*
X741830D02*
D03*
X811830D02*
D03*
D44*
X529082Y453898D02*
D03*
M02*
