M48
;Layer_Color=9474304
;FILE_FORMAT=4:4
METRIC,LZ
;TYPE=PLATED
T1F00S00C0.7112
T2F00S00C0.9100
T3F00S00C0.9500
T4F00S00C1.0000
T5F00S00C1.1500
T6F00S00C1.2000
T7F00S00C1.3200
T8F00S00C1.6000
T9F00S00C3.1600
%
T01
X00529082Y00453898
T02
X0081183Y0055626
X0078643
X0074183
X0071643
X0067183
X0064643
X0060183
X0057643
X0053183
X0050643
T03
X0040386Y0030099
Y0032639
Y0035179
Y0037719
X0048006
Y0035179
Y0032639
Y0030099
X0053086
Y0032639
Y0035179
Y0037719
X0060706
Y0035179
Y0032639
Y0030099
X0065278
Y0032639
Y0035179
Y0037719
X0072898
Y0035179
Y0032639
Y0030099
T04
X0028067Y0032806
Y0035306
Y0037806
X0031267
Y0032806
T05
X008382Y0047117
X0071501
X0061722
X0051308
X0040513
T06
X00810963Y00324553
X0079705Y0035814
X00810963Y00391727
X00878137
X0089205Y0035814
X00878137Y00324553
T07
X0098044Y0033264
Y0035814
Y0038364
T08
X0032766Y0055626
X0037766
T09
X0029667Y0029456
Y0041156
M30
